<!-- Generator: Adobe Illustrator 24.2.0, SVG Export Plug-In . SVG Version: 6.00 Build 0)  -->
<svg version="1.1" id="Layer_1" xmlns="http://www.w3.org/2000/svg" xmlns:xlink="http://www.w3.org/1999/xlink" x="0px" y="0px" viewBox="0 0 600 92.1" style="enable-background:new 0 0 600 92.1;" xml:space="preserve" width="600" height="92.1">
<style type="text/css">
	.st0{fill:#7B00FF;}
</style>
<g>
	<path class="st0" d="M396.6,46.8c-1.3-1.4-2.9-2.5-4.6-3.3c-1-0.4-2-0.8-3.1-1c1.1-0.2,2.1-0.6,3.1-1c1.8-0.8,3.3-1.9,4.7-3.3   c1.2-1.3,2.3-2.8,3-4.5h-19.9l6.2-6.1l0,0l-6.2-6.2h19.7c-0.7-1.6-1.8-3.1-3-4.4c-1.3-1.3-2.8-2.3-4.5-3.1c-1.8-0.8-3.9-1.3-6-1.3   c-0.1,0-0.1,0-0.2,0c-2.2,0-4.3,0.5-6.1,1.3c-1.6,0.7-3.1,1.7-4.4,3c-1.1,1-2,2.2-2.7,3.5c-0.7-1.3-1.6-2.5-2.7-3.5   c-1.3-1.3-2.9-2.3-4.6-3.1c-1.8-0.8-3.8-1.2-5.9-1.2c-0.1,0-0.1,0-0.2,0c-2.2,0-4.4,0.5-6.3,1.4c-1.6,0.7-3,1.8-4.3,3   c-1.2,1.3-2.3,2.7-3,4.4c-0.9,1.9-1.3,4-1.4,6.2c0,0.1,0,0.1,0,0.1c0,2.1,0.4,4.2,1.2,6c0.7,1.7,1.8,3.2,3,4.5   c1.3,1.3,2.7,2.4,4.4,3.1v-20h12.4v20.2c1.8-0.8,3.4-1.9,4.8-3.2c1-1,1.8-2.1,2.5-3.3c0.7,1.2,1.5,2.3,2.5,3.3   c1.3,1.3,2.8,2.4,4.5,3.1c1,0.4,2,0.8,3,1c-1,0.2-2,0.6-3,1c-1.7,0.8-3.2,1.8-4.5,3.1c-1,1-1.8,2.1-2.5,3.3   c-0.7-1.2-1.5-2.3-2.5-3.3l-4.7,4.7l-0.1,0.1v-0.1v-7.9c-0.9-0.4-1.8-0.7-2.7-0.9c-1-0.2-2.1-0.3-3.1-0.3c-0.1,0-0.1,0-0.2,0   c-1,0-2,0.1-3,0.3c-1.1,0.2-2.2,0.6-3.3,1.1c-1.7,0.8-3.2,1.9-4.4,3.2c-1.3,1.3-2.3,2.8-3,4.5c-0.8,1.8-1.2,3.9-1.2,6   c0,0.1,0,0.1,0,0.2c0,2.2,0.5,4.3,1.4,6.2c0.7,1.6,1.8,3.1,3,4.3c1.2,1.2,2.6,2.2,4.2,3c1.9,0.9,4,1.4,6.3,1.4c0.1,0,0.1,0,0.2,0   c2.1,0,4.1-0.4,5.9-1.2c1.7-0.7,3.3-1.8,4.6-3.1c1-1,1.9-2.2,2.7-3.5c0.7,1.3,1.6,2.5,2.7,3.5c1.3,1.2,2.7,2.2,4.4,3V51.4h12.3   v19.8c1.7-0.8,3.2-1.8,4.5-3.1c1.2-1.2,2.3-2.7,3-4.3c0.9-1.9,1.4-4,1.4-6.2c0-0.1,0-0.1,0-0.2c0-2.1-0.5-4.2-1.2-6   C398.9,49.7,397.8,48.1,396.6,46.8z M365.2,57.5L365.2,57.5C365.2,57.5,365.2,57.6,365.2,57.5c0,1.7-0.7,3.2-1.7,4.3   c-1.1,1.1-2.6,1.8-4.3,1.9c0,0-0.1,0-0.1,0c-1.7,0-3.2-0.7-4.3-1.8c-1.1-1.1-1.8-2.7-1.8-4.4v0c0-1.7,0.7-3.3,1.9-4.4   c1.1-1.1,2.6-1.7,4.3-1.7h0.1c1.7,0.1,3.2,0.8,4.3,1.9C364.6,54.3,365.2,55.8,365.2,57.5C365.2,57.5,365.2,57.5,365.2,57.5z    M418.5,38.9L418.5,38.9l5.3,0c1.9,0,3.6-0.3,4.9-0.9c1.3-0.6,2.3-1.4,3-2.5c0.7-1.1,1-2.3,1-3.9v-0.5c0-1.6-0.4-2.9-1.1-3.8   c-0.6-0.8-1.5-1.4-2.5-1.8c0.5-0.3,1-0.8,1.4-1.2c0.8-0.9,1.1-2.2,1.1-3.8V20c0-2.2-0.7-4-2.2-5.2c-1.5-1.2-3.7-1.8-6.6-1.8h-5v0   h-4.1v25.9H418.5z M426.9,34c-0.6,0.6-1.5,1-2.6,1h-5.7v-7.2h5.7c1.2,0,2.1,0.3,2.7,0.9c0.6,0.6,0.9,1.5,0.9,2.6   C427.8,32.4,427.5,33.3,426.9,34z M423.3,17c1.2,0,2.1,0.3,2.6,1c0.6,0.6,0.8,1.5,0.8,2.6c0,1-0.3,1.9-0.8,2.5   c-0.6,0.6-1.4,1-2.6,1h-4.8V17H423.3z M437.2,16.9h-2.4v-3.6h2.4h4.9h0v3.6h0v21.9h-4.9V16.9z M448.6,36.4c0.9,0.9,2,1.6,3.2,2.2   c1.3,0.5,2.8,0.8,4.4,0.8c1.7,0,3.1-0.3,4.4-0.8c1.3-0.5,2.4-1.2,3.2-2.2c0.9-0.9,1.6-2,2-3.1c0.5-1.2,0.7-2.4,0.7-3.7v-0.7   c0-1.3-0.2-2.5-0.7-3.7c-0.5-1.2-1.1-2.2-2-3.1c-0.9-0.9-2-1.6-3.3-2.2c-1.3-0.5-2.7-0.8-4.3-0.8c-1.6,0-3.1,0.3-4.4,0.8   c-1.3,0.5-2.4,1.2-3.3,2.2c-0.9,0.9-1.6,2-2,3.1c-0.5,1.2-0.7,2.4-0.7,3.7v0.7c0,1.3,0.2,2.5,0.7,3.7   C447,34.5,447.7,35.5,448.6,36.4z M451.4,26.2c0.4-0.9,1.1-1.6,1.9-2.1c0.8-0.5,1.8-0.8,3-0.8c1.1,0,2.1,0.3,2.9,0.8   c0.8,0.5,1.4,1.2,1.9,2.1c0.4,0.9,0.7,1.9,0.7,3.1c0,1.1-0.2,2.2-0.6,3.1c-0.4,0.9-1.1,1.6-1.9,2.1c-0.8,0.5-1.8,0.8-3,0.8   c-1.2,0-2.2-0.3-3-0.8c-0.8-0.5-1.4-1.2-1.9-2.1c-0.4-0.9-0.6-1.9-0.6-3.1C450.8,28.1,451,27.1,451.4,26.2z M484.5,45.8h4.9v-26   h-3.9v4.1c-0.1-0.2-0.2-0.5-0.3-0.7c-0.7-1.3-1.6-2.3-2.8-3c-1.2-0.7-2.6-1-4.1-1c-1.3,0-2.6,0.2-3.7,0.7c-1.1,0.5-2.1,1.2-2.9,2.1   c-0.8,0.9-1.4,1.9-1.9,3.1c-0.4,1.2-0.6,2.5-0.6,3.8v0.8c0,1.4,0.2,2.6,0.6,3.8c0.4,1.2,1,2.2,1.8,3.1c0.8,0.9,1.7,1.6,2.8,2.1   c1.1,0.5,2.3,0.7,3.6,0.7c1.5,0,2.8-0.3,4-1c1-0.6,1.8-1.3,2.4-2.3V45.8L484.5,45.8z M482,34.6c-0.8,0.4-1.7,0.7-2.6,0.7   c-1,0-1.9-0.2-2.7-0.8c-0.8-0.5-1.4-1.2-1.9-2.1c-0.5-0.9-0.7-1.9-0.7-3.1c0-1.2,0.2-2.2,0.7-3.1c0.4-0.9,1.1-1.6,1.9-2.1   c0.8-0.5,1.7-0.8,2.8-0.8c0.9,0,1.8,0.2,2.6,0.6c0.8,0.4,1.4,1,1.9,1.8c0.5,0.8,0.7,1.7,0.7,2.8v1.4c0,1.1-0.2,2.1-0.7,2.9   C483.4,33.5,482.8,34.1,482,34.6z M506.4,19.8h4.9v19h-3.8v-4.5c-0.1,0.4-0.2,0.8-0.4,1.2c-0.5,1.3-1.2,2.2-2.2,2.9   c-1,0.6-2.2,1-3.7,1h-0.3v-0.1c-2.2,0-3.9-0.7-5.1-2.1c-1.2-1.4-1.8-3.6-1.8-6.4v-11h4.9v11.4c0,1.2,0.3,2.1,1,2.8   c0.7,0.7,1.5,1,2.7,1c1.1,0,2-0.4,2.7-1.1c0.7-0.7,1.1-1.7,1.1-2.9V19.8z M534,28.7c0-1.7-0.4-3.2-1.1-4.7   c-0.7-1.5-1.7-2.6-3.1-3.5c-1.4-0.9-3.1-1.3-5.1-1.3c-1.6,0-3,0.3-4.1,0.8c-1.2,0.5-2.2,1.3-3,2.2c-0.8,0.9-1.4,2-1.8,3.1   c-0.4,1.2-0.6,2.4-0.6,3.6v0.7c0,1.2,0.2,2.4,0.6,3.6c0.4,1.2,1,2.2,1.8,3.2c0.8,0.9,1.8,1.7,3,2.3c1.2,0.6,2.7,0.8,4.3,0.8   c1.6,0,3-0.3,4.2-0.8c1.2-0.5,2.2-1.3,3-2.3c0.8-1,1.3-2.1,1.6-3.4h-4.5c-0.2,0.7-0.7,1.3-1.4,1.8c-0.7,0.5-1.7,0.7-2.9,0.7   c-1.2,0-2.2-0.3-2.9-0.8s-1.3-1.2-1.7-2.2c-0.2-0.6-0.4-1.3-0.5-2H534V28.7z M521.9,23.9c0.7-0.5,1.7-0.7,2.7-0.7   c1.1,0,2,0.2,2.7,0.7c0.7,0.5,1.2,1.1,1.6,2c0.2,0.5,0.3,1,0.4,1.6h-9.5c0.1-0.5,0.2-1,0.4-1.5C520.6,25.1,521.2,24.4,521.9,23.9z    M433,46.4h4.7v25.5h-8.2l-10.7-21.4h-0.5v21.4h-4.6v0V46.4h8.1l10.7,21.4h0.5V46.4z M456.6,53.6c-1.4-0.9-3.1-1.3-5.1-1.3   c-1.6,0-2.9,0.3-4.1,0.8c-1.2,0.5-2.2,1.3-3,2.2c-0.8,0.9-1.4,2-1.8,3.1c-0.4,1.2-0.6,2.4-0.6,3.6v0.7c0,1.2,0.2,2.4,0.6,3.6   c0.4,1.2,1,2.2,1.8,3.2c0.8,1,1.8,1.7,3,2.3c1.2,0.6,2.7,0.8,4.3,0.8c1.6,0,3-0.3,4.2-0.8c1.2-0.5,2.2-1.3,3-2.3   c0.8-1,1.3-2.1,1.6-3.4H456c-0.2,0.7-0.7,1.3-1.4,1.8c-0.7,0.5-1.7,0.7-2.9,0.7c-1.2,0-2.2-0.3-2.9-0.8c-0.8-0.5-1.3-1.2-1.7-2.2   c-0.2-0.6-0.4-1.3-0.5-2h14.3v-1.8c0-1.7-0.4-3.2-1.1-4.7C459.1,55.7,458,54.5,456.6,53.6z M448.7,57c0.7-0.5,1.7-0.7,2.7-0.7   s2,0.2,2.7,0.7c0.7,0.5,1.2,1.1,1.6,2c0.2,0.5,0.3,1,0.4,1.6h-9.5c0.1-0.5,0.2-1,0.4-1.5C447.4,58.3,448,57.5,448.7,57z    M475.3,50.5h-4.1l3.1-7.2h5L475.3,50.5z M481.1,55.2c-0.9-0.9-2-1.6-3.3-2.2c-1.3-0.5-2.7-0.8-4.3-0.8c-1.6,0-3.1,0.3-4.4,0.8   c-1.3,0.5-2.4,1.2-3.3,2.2c-0.9,0.9-1.6,2-2,3.1c-0.4,1.2-0.7,2.4-0.7,3.7v0.7c0,1.3,0.2,2.5,0.7,3.7c0.4,1.2,1.1,2.2,2,3.1   c0.9,0.9,2,1.6,3.2,2.2c1.3,0.5,2.8,0.8,4.4,0.8c1.7,0,3.1-0.3,4.4-0.8c1.3-0.5,2.4-1.2,3.2-2.2c0.9-0.9,1.6-2,2-3.1   c0.4-1.2,0.7-2.4,0.7-3.7v-0.7c0-1.3-0.2-2.5-0.7-3.7C482.7,57.2,482,56.2,481.1,55.2z M478.4,65.5c-0.4,0.9-1.1,1.6-1.9,2.1   c-0.8,0.5-1.8,0.8-3,0.8c-1.2,0-2.2-0.3-3-0.8c-0.8-0.5-1.4-1.2-1.9-2.1c-0.4-0.9-0.6-1.9-0.6-3.1s0.2-2.2,0.7-3.1   c0.4-0.9,1.1-1.6,1.9-2.1c0.8-0.5,1.8-0.8,3-0.8c1.1,0,2.1,0.3,2.9,0.8c0.8,0.5,1.4,1.2,1.9,2.1c0.4,0.9,0.7,1.9,0.7,3.1   S478.8,64.6,478.4,65.5z M503.4,54.5c1.2,1.5,1.7,3.6,1.7,6.5v10.9h-4.9V60.6c0-1.2-0.3-2.1-1-2.8c-0.7-0.7-1.6-1.1-2.7-1.1   c-1.2,0-2.1,0.4-2.9,1.1c-0.7,0.7-1.1,1.7-1.1,2.9v11.1h-4.8v-19h3.8v4.7c0.1-0.5,0.2-1,0.4-1.4c0.5-1.3,1.3-2.3,2.3-2.9   c1-0.7,2.3-1,3.8-1h0.2C500.5,52.3,502.2,53.1,503.4,54.5z" />
	<g>
		<rect x="323.3" y="10.3" width="1.6" height="64.8" />
	</g>
	<path d="M121.9,74.2c-12.3,8-25.1,7.6-25.1,7.6s-0.3-1.6-0.2-4.4c0.1-2.8,1.7-2,2.8-4.2c0.4-0.8,0.7-1.4,1.4-3.2   c0-0.1-0.7-13.6-0.9-19.3c-0.1-3.1-0.7-8.2-1.4-13.2c-0.4-3-1.3-5.3-1.7-8.1c-0.6-4.1-1.3-8.7-1.3-8.7c-0.5,1.3-1.2,6.1-1.9,11.6   c-0.3,2.6-0.7,5.4-1,8c-0.7,5.5-2.4,20.1-2.7,20.9c-0.4,1.2-0.4-0.3-0.4-0.3s1-15.4,1.3-22.1c0.1-3.3,0.4-6.9,0.8-10.4   c0.3-2.6,0.7-5.1,1.2-7.4c0,0,1.8-5.3,2.3-5.4c0.6-0.1,2.6,3.3,3.3,6.4c1.6,6.9,2.5,7.8,3.7,15.1c1.1,6.9,2.2,12.7,2.3,13.7   c0.5,3.5,0.3,14.2-0.6,18.5c-0.2,1.2-0.3,1.6-1,2.4c-1.8,1.8-3,4-3,5.4c0,1.4-0.2,1.4,0.1,2.2c0,0,2.4,3.5,15.9-4.5   c0,0,4.2-2.2,4.2-7.1V17.9c0,0-13.4-4.5-23.8-4.5c-10.3,0-23.3,4.5-23.3,4.5v49.3c0,3,0.4,8.7,4.8,10.7c0,0-11.5-4-11.5-10.7V13.7   c0,0,17.6-3.2,30.1-3.2c12.5,0,30.4,3.2,30.4,3.2s0,48.8,0,53.4C126.4,71.8,121.9,74.2,121.9,74.2z" />
	<path d="M289.2,32.9c-1.2,0.7-2.9,1-5,1c-2.1,0-3.7-0.6-4.9-1.9c-1.2-1.3-1.7-3-1.7-5.3s0.6-4.1,1.7-5.5c1.1-1.3,2.6-2,4.5-2   c0.8,0,1.5,0.1,2.1,0.3v-5.8h3.2V32.9z M286,31.5V21.3c-0.4-0.1-0.9-0.2-1.4-0.2c-2.5,0-3.8,1.8-3.8,5.4c0,3.6,1.2,5.3,3.5,5.3   C285.1,31.8,285.7,31.7,286,31.5z" />
	<path d="M303.9,26.4l-8.7,1.3c0.3,2.6,1.6,4,3.9,4c1.4,0,2.6-0.3,3.6-0.8l0.8,2c-1.2,0.7-2.8,1-4.7,1c-2,0-3.7-0.6-4.8-1.9   c-1.2-1.3-1.8-3.1-1.8-5.5c0-2.3,0.5-4.1,1.6-5.4c1.1-1.3,2.6-1.9,4.5-1.9c1.9,0,3.4,0.6,4.3,1.9C303.6,22.2,304,24.1,303.9,26.4z    M300.9,25.2c0-2.7-0.9-4-2.8-4c-1,0-1.7,0.4-2.3,1.2c-0.6,0.9-0.8,2.1-0.8,3.8L300.9,25.2z" />
	<path d="M141.9,71.6h-5V40.4h5V71.6z" />
	<path d="M165.2,60.5c0,3.5-0.8,6.2-2.3,8.2c-1.7,2.2-4,3.3-7,3.3c-3,0-5.3-1.1-7-3.3c-1.5-2-2.3-4.8-2.3-8.2c0-3.5,0.8-6.2,2.3-8.3   c1.7-2.2,4-3.3,7-3.3c3,0,5.4,1.1,7,3.3C164.5,54.2,165.2,57,165.2,60.5z M160.2,60.4c0-5.6-1.4-8.4-4.3-8.4   c-2.8,0-4.3,2.8-4.3,8.4c0,5.4,1.4,8.2,4.3,8.2C158.8,68.6,160.2,65.9,160.2,60.4z" />
	<path d="M182.6,65.2c0,1.9-0.7,3.5-2.2,4.8c-1.5,1.3-3.4,2-5.8,2c-2.5,0-4.6-0.5-6.2-1.6l1.3-3.2c1.1,0.8,2.5,1.3,4.2,1.3   c1,0,1.9-0.3,2.5-0.9c0.6-0.6,0.9-1.4,0.9-2.3c0-0.9-0.2-1.7-0.7-2.2c-0.5-0.5-1.3-1-2.5-1.5c-3.4-1.3-5.1-3.4-5.1-6.3   c0-1.8,0.6-3.3,2-4.6c1.3-1.3,3-1.9,5.1-1.9c2.3,0,4.2,0.5,5.8,1.6l-1.2,2.9c-1-0.8-2.2-1.3-3.6-1.3c-1,0-1.8,0.3-2.3,0.8   c-0.6,0.6-0.8,1.3-0.8,2.1c0,1.5,1.1,2.6,3.3,3.5C180.8,60,182.6,62.2,182.6,65.2z" />
	<path d="M219.8,71.6h-5.9l-2.4-7.9h-10l-2.5,7.9h-5.1l10.3-31h5.4L219.8,71.6z M210.7,60.3l-3.2-10.9c-0.4-1.5-0.7-2.8-0.8-3.7   h-0.1c-0.1,0.8-0.4,2.1-0.8,3.7l-3.3,10.9H210.7z" />
	<path d="M240.6,71.6h-5V55.8c0-2.5-1.3-3.7-4-3.7c-1.3,0-2.4,0.2-3.5,0.6v18.9h-5V50.5c2.3-1.1,5.2-1.6,8.7-1.6   c3.1,0,5.4,0.7,6.9,2.1c1.3,1.1,1.9,2.7,1.9,4.8L240.6,71.6L240.6,71.6z" />
	<path d="M263.4,70.4c-1.9,1.1-4.5,1.6-7.8,1.6c-3.3,0-5.8-1-7.7-3c-1.8-2-2.7-4.8-2.7-8.3c0-3.6,0.9-6.4,2.7-8.6   c1.8-2,4.1-3.1,7-3.1c1.3,0,2.4,0.1,3.4,0.4v-9h5L263.4,70.4L263.4,70.4z M258.3,68.3v-16c-0.7-0.2-1.4-0.3-2.2-0.3   c-3.9,0-5.9,2.8-5.9,8.5c0,5.6,1.8,8.4,5.5,8.4C256.9,68.8,257.8,68.6,258.3,68.3z" />
	<path d="M286.4,60.3l-13.7,2c0.4,4.1,2.4,6.2,6.1,6.2c2.2,0,4-0.4,5.6-1.2l1.2,3.2c-1.9,1-4.4,1.6-7.4,1.6c-3.2,0-5.7-1-7.6-3   c-1.9-2-2.8-4.9-2.8-8.6c0-3.6,0.8-6.4,2.5-8.5c1.7-2,4-3,7-3c3,0,5.2,1,6.8,2.9C285.8,53.7,286.5,56.6,286.4,60.3z M281.6,58.3   c0-4.2-1.5-6.3-4.4-6.3c-1.5,0-2.7,0.6-3.6,1.9c-0.9,1.4-1.3,3.3-1.3,5.9L281.6,58.3z" />
	<path d="M303.7,65.2c0,1.9-0.7,3.5-2.2,4.8c-1.5,1.3-3.4,2-5.8,2c-2.5,0-4.6-0.5-6.2-1.6l1.3-3.2c1.1,0.8,2.5,1.3,4.2,1.3   c1,0,1.9-0.3,2.5-0.9c0.6-0.6,0.9-1.4,0.9-2.3c0-0.9-0.2-1.7-0.7-2.2c-0.5-0.5-1.3-1-2.5-1.5c-3.4-1.3-5.1-3.4-5.1-6.3   c0-1.8,0.6-3.3,2-4.6c1.3-1.3,3-1.9,5.1-1.9c2.3,0,4.2,0.5,5.8,1.6l-1.2,2.9c-1-0.8-2.2-1.3-3.6-1.3c-1,0-1.8,0.3-2.3,0.8   c-0.6,0.6-0.8,1.3-0.8,2.1c0,1.5,1.1,2.6,3.3,3.5C302,60,303.7,62.2,303.7,65.2z" />
	<path d="M163.5,33.7h-3.2V23.6c0-1.6-0.8-2.4-2.6-2.4c-0.8,0-1.6,0.1-2.2,0.4v12.1h-3.2V20.2c1.5-0.7,3.3-1,5.6-1   c2,0,3.5,0.4,4.4,1.3c0.8,0.7,1.2,1.8,1.2,3V33.7z" />
	<path d="M170.5,15.4c0,0.4-0.2,0.8-0.5,1.1c-0.3,0.3-0.8,0.5-1.3,0.5s-0.9-0.2-1.3-0.5c-0.3-0.3-0.5-0.7-0.5-1.1   c0-0.4,0.2-0.8,0.5-1.1c0.3-0.3,0.8-0.5,1.3-0.5s0.9,0.2,1.3,0.5C170.3,14.6,170.5,15,170.5,15.4z M170.3,33.7h-3.2V19.5h3.2V33.7z   " />
	<path d="M185,19.5l-4.6,14.2h-3.1l-4.6-14.2h3.4l2.5,9.2c0.2,0.7,0.3,1.3,0.3,2h0.1c0.1-0.5,0.2-1.2,0.4-2l2.6-9.2H185z" />
	<path d="M198.5,26.5l-8.7,1.3c0.3,2.6,1.6,4,3.9,4c1.4,0,2.6-0.3,3.6-0.8l0.8,2c-1.2,0.7-2.8,1-4.7,1c-2,0-3.7-0.6-4.8-1.9   c-1.2-1.3-1.8-3.1-1.8-5.5c0-2.3,0.5-4.1,1.6-5.4c1.1-1.3,2.6-1.9,4.5-1.9c1.9,0,3.4,0.6,4.3,1.9C198.1,22.3,198.5,24.1,198.5,26.5   z M195.4,25.2c0-2.7-0.9-4-2.8-4c-1,0-1.8,0.4-2.3,1.2c-0.6,0.9-0.8,2.1-0.8,3.8L195.4,25.2z" />
	<path d="M208.2,19.2l-0.6,2.4c-0.5-0.2-1-0.2-1.5-0.2c-0.6,0-1.1,0.1-1.5,0.3v12h-3.2V20.2C203,19.5,205.2,19.1,208.2,19.2z" />
	<path d="M218.5,29.6c0,1.2-0.5,2.2-1.4,3.1c-0.9,0.8-2.2,1.3-3.7,1.3c-1.6,0-2.9-0.3-3.9-1l0.8-2.1c0.7,0.5,1.6,0.8,2.7,0.8   c0.6,0,1.2-0.2,1.6-0.6c0.4-0.4,0.6-0.8,0.6-1.4c0-0.6-0.2-1.1-0.5-1.4c-0.3-0.3-0.8-0.6-1.6-0.9c-2.2-0.8-3.2-2.2-3.2-4   c0-1.2,0.4-2.1,1.3-2.9c0.8-0.8,1.9-1.2,3.2-1.2c1.4,0,2.7,0.3,3.7,1l-0.8,1.9c-0.6-0.5-1.4-0.8-2.3-0.8c-0.6,0-1.1,0.2-1.5,0.5   c-0.4,0.4-0.5,0.8-0.5,1.3c0,0.9,0.7,1.7,2.1,2.2C217.4,26.3,218.5,27.7,218.5,29.6z" />
	<path d="M224.8,15.4c0,0.4-0.2,0.8-0.5,1.1c-0.3,0.3-0.8,0.5-1.3,0.5c-0.5,0-0.9-0.2-1.3-0.5c-0.3-0.3-0.5-0.7-0.5-1.1   c0-0.4,0.2-0.8,0.5-1.1c0.3-0.3,0.8-0.5,1.3-0.5c0.5,0,0.9,0.2,1.3,0.5C224.7,14.6,224.8,15,224.8,15.4z M224.7,33.7h-3.2V19.5h3.2   V33.7z" />
	<path d="M239.3,32.9c-1.2,0.7-2.9,1-5,1c-2.1,0-3.7-0.6-4.9-1.9c-1.2-1.3-1.7-3-1.7-5.3s0.6-4.1,1.7-5.5c1.1-1.3,2.6-2,4.5-2   c0.8,0,1.5,0.1,2.1,0.3v-5.8h3.2V32.9z M236.1,31.6V21.3c-0.4-0.1-0.9-0.2-1.4-0.2c-2.5,0-3.8,1.8-3.8,5.4c0,3.6,1.2,5.3,3.5,5.3   C235.2,31.9,235.7,31.8,236.1,31.6z" />
	<path d="M253,32.9c-1.3,0.7-3,1-5.1,1c-3.9,0-5.8-1.4-5.8-4.3c0-1.7,0.8-3,2.3-3.9c1.2-0.7,3.1-1.1,5.6-1.4v-0.8   c0-1.6-0.9-2.3-2.8-2.3c-1.2,0-2.4,0.3-3.6,0.9l-0.7-1.9c1.5-0.7,3.1-1.1,4.9-1.1c3.5,0,5.2,1.6,5.2,4.9L253,32.9L253,32.9z    M250,31.8v-5.9c-1.7,0.2-2.9,0.5-3.6,1c-0.9,0.5-1.3,1.4-1.3,2.6c0,1.8,1,2.6,3,2.6C248.8,32.2,249.4,32,250,31.8z" />
	<path d="M267.5,32.9c-1.2,0.7-2.9,1-5,1c-2.1,0-3.7-0.6-4.9-1.9c-1.2-1.3-1.7-3-1.7-5.3s0.6-4.1,1.7-5.5c1.1-1.3,2.6-2,4.5-2   c0.8,0,1.5,0.1,2.1,0.3v-5.8h3.2L267.5,32.9L267.5,32.9z M264.3,31.6V21.3c-0.4-0.1-0.9-0.2-1.4-0.2c-2.5,0-3.8,1.8-3.8,5.4   c0,3.6,1.2,5.3,3.5,5.3C263.4,31.9,263.9,31.8,264.3,31.6z" />
	<path d="M136.8,13.9h3.4v15.3c0,1.7,0.9,2.5,2.7,2.5c0.9,0,1.7-0.1,2.4-0.4V13.8h3.4v18.9c-1.6,0.7-3.5,1.1-5.9,1.1   c-2.1,0-3.7-0.5-4.7-1.4c-0.9-0.8-1.3-1.9-1.3-3.2L136.8,13.9L136.8,13.9z" />
</g>
</svg>